REM MD5 776f735d121298fd3fa36a08c4184648
FILE "UEFA Champions League - Season 1999-2000 (Italy).bin" BINARY
  TRACK 01 MODE2/2352
    INDEX 01 00:00:00
  TRACK 02 AUDIO
    INDEX 00 50:12:22
    INDEX 01 50:14:22
  TRACK 03 AUDIO
    INDEX 00 56:27:57
    INDEX 01 56:29:57
REM LEADOUT 62:43:17
